:SAMPLES-PER-SECOND 30
:FULLY-SPECIFIED
:DEGREES
323
root  -72.1132 34.5502 34.5566 -160.715 56.0875 -170.976
RightUpLeg  -15.3051 -9.76823 8.91318
RightLeg  11.9718 4.82426 0.70298
RightFoot  -0.0212998 0.000947783 0.039277
RightToes  -18.1483 -0.0724192 -0.163339
Spine  -1.56265 -0.475789 1.198
Spine1  -3.1322 -0.906254 2.88371
HEad  -74.1113 7.2833 2.96908
LeftShoulder1  -1.94126e-019 -3.10601e-018 -2.51263e-017
LeftArm  -3.29045 16.6456 -81.8812
LeftForeArm  28.5904 -36.5893 -6.61065
LeftHand  -0.402384 -0.516628 8.01343
RightShoulder  -4.96962e-017 0 -2.36833e-017
RightArm  -32.6518 -23.845 74.8069
RightForeArm  62.5283 10.1471 1.53648
RightHand  -0.29237 -2.44194 -11.2067
LeftUpLeg  -16.9183 8.53231 3.70497
LeftLeg  27.2391 13.1371 5.65529
LeftFoot  -8.43343 -0.16233 -2.0399
LeftToes  -14.278 1.87998e-006 4.79886e-008
324
root  -72.461 34.5881 34.55 -162.053 55.2052 -172.33
RightUpLeg  -16.2078 -10.5571 8.09881
RightLeg  13.1938 4.55851 0.763599
RightFoot  -0.109464 0.00184538 0.0324278
RightToes  -18.5963 -0.0747827 -0.166947
Spine  -1.51414 -1.08307 1.13691
Spine1  -3.0337 -2.16522 2.80875
HEad  -75.9492 7.86172 2.39472
LeftShoulder1  -1.94126e-019 -3.10601e-018 -2.51263e-017
LeftArm  -1.26179 15.7441 -82.0004
LeftForeArm  29.3257 -38.3332 -7.05304
LeftHand  -0.408833 -0.855087 7.66897
RightShoulder  -4.96962e-017 0 -2.36833e-017
RightArm  -35.007 -24.703 75.1106
RightForeArm  62.9962 9.74183 1.52387
RightHand  -0.282206 -2.52861 -11.1187
LeftUpLeg  -16.4199 6.7317 2.78286
LeftLeg  25.3914 13.9135 5.46498
LeftFoot  -7.67703 -0.14093 -1.93867
LeftToes  -13.9035 1.87998e-006 4.79886e-008
325
root  -72.7891 34.6503 34.5567 -163.421 54.6633 -173.703
RightUpLeg  -16.6738 -10.0561 7.05426
RightLeg  13.6973 3.41804 0.603663
RightFoot  0.264069 0.00094842 0.057458
RightToes  -18.9357 -0.0756057 -0.168211
Spine  -1.32951 -1.28876 0.701183
Spine1  -2.64137 -2.64449 1.97332
HEad  -76.8814 7.62325 2.60295
LeftShoulder1  -1.94126e-019 -3.10601e-018 -2.51263e-017
LeftArm  1.69637 14.6314 -81.1397
LeftForeArm  29.8118 -40.5071 -7.66874
LeftHand  -0.411722 -1.17611 7.42658
RightShoulder  -4.96962e-017 0 -2.36833e-017
RightArm  -36.7552 -25.8341 76.5527
RightForeArm  62.7988 9.89972 1.53037
RightHand  -0.274964 -2.35373 -10.2155
LeftUpLeg  -16.0151 4.5616 1.8263
LeftLeg  24.0369 15.4459 5.6396
LeftFoot  -6.72708 -0.119764 -1.87599
LeftToes  -12.6774 1.87998e-006 4.79886e-008
326
root  -73.0139 34.7698 34.5016 -166.19 55.3374 -175.896
RightUpLeg  -16.3184 -8.99974 5.23376
RightLeg  14.4121 2.64497 0.501181
RightFoot  0.378861 0.00132696 0.0744164
RightToes  -18.3981 -0.07271 -0.163819
Spine  -0.977365 -1.23742 0.13684
Spine1  -1.91716 -2.57817 0.905017
HEad  -77.1229 7.85457 3.20522
LeftShoulder1  -1.94126e-019 -3.10601e-018 -2.51263e-017
LeftArm  3.26286 14.1772 -80.4436
LeftForeArm  29.958 -41.3927 -7.92479
LeftHand  -0.410395 -1.30358 7.27226
RightShoulder  -4.96962e-017 0 -2.36833e-017
RightArm  -35.4176 -26.9104 77.6967
RightForeArm  61.6625 10.6029 1.53912
RightHand  -0.277199 -2.15698 -9.69658
LeftUpLeg  -15.3819 17.5204 -1.09942
LeftLeg  17.236 14.9788 3.56307
LeftFoot  -12.0534 -0.351129 -3.16339
LeftToes  81.8248 1.87998e-006 4.79886e-008
327
root  -73.604 34.8766 33.9709 -172.57 55.7641 176.991
RightUpLeg  -17.8674 -14.2973 0.360947
RightLeg  17.6095 7.69148 1.90086
RightFoot  -0.624106 -0.00305874 -0.0474143
RightToes  -20.8546 -0.0862739 -0.183658
Spine  -0.70984 -1.23805 -1.34108
Spine1  -1.33902 -2.71431 -2.05419
HEad  -76.7915 7.57082 3.48346
LeftShoulder1  -1.94126e-019 -3.10601e-018 -2.51263e-017
LeftArm  4.5209 13.8839 -79.4442
LeftForeArm  29.5833 -41.8268 -8.07607
LeftHand  -0.43811 -1.71775 7.33333
RightShoulder  -4.96962e-017 0 -2.36833e-017
RightArm  -34.6118 -27.3614 79.0236
RightForeArm  62.0705 10.8788 1.53284
RightHand  -0.316305 -1.48996 -9.28316
LeftUpLeg  -7.23959 -53.2221 -2.31173
LeftLeg  25.9411 29.8875 11.5243
LeftFoot  -1.40971 -0.0113678 -0.762383
LeftToes  -21.2976 1.87998e-006 4.79886e-008
328
root  -73.691 34.7417 34.5666 -166.638 55.2565 -176.456
RightUpLeg  -18.799 -8.62133 4.51329
RightLeg  17.3792 2.02651 0.492896
RightFoot  0.067222 9.27064e-005 0.0662011
RightToes  -18.8148 -0.0749507 -0.167225
Spine  -0.798395 -1.03562 -0.421339
Spine1  -1.53908 -2.21618 -0.183711
HEad  -76.5563 7.51757 4.43768
LeftShoulder1  -1.94126e-019 -3.10601e-018 -2.51263e-017
LeftArm  5.07899 13.9997 -79.1683
LeftForeArm  30.1777 -43.4528 -8.57727
LeftHand  -0.426057 -1.85022 7.01566
RightShoulder  -4.96962e-017 0 -2.36833e-017
RightArm  -33.6757 -27.4938 79.3768
RightForeArm  62.6866 11.08 1.5251
RightHand  -0.342695 -0.845065 -8.70906
LeftUpLeg  -13.8253 9.54705 0.184212
LeftLeg  15.3238 9.40561 1.92629
LeftFoot  4.703 -0.0302477 0.898124
LeftToes  -68.0441 1.87998e-006 4.79886e-008
329
root  -73.9865 34.7223 34.5689 -167.659 55.279 -177.402
RightUpLeg  -20.2164 -9.26804 3.79619
RightLeg  19.8773 2.26166 0.654622
RightFoot  -0.623655 -0.00281452 0.0435848
RightToes  -21.1081 -0.0877219 -0.185672
Spine  -0.654403 -0.9343 -0.725917
Spine1  -1.25698 -2.01303 -0.797054
HEad  -75.8573 7.43929 4.20282
LeftShoulder1  -1.94126e-019 -3.10601e-018 -2.51263e-017
LeftArm  4.40965 14.2721 -78.9358
LeftForeArm  30.2916 -42.5308 -8.25893
LeftHand  -0.43778 -1.87194 7.18391
RightShoulder  -4.96962e-017 0 -2.36833e-017
RightArm  -33.3116 -27.2548 79.874
RightForeArm  63.2773 11.3975 1.5083
RightHand  -0.362528 -0.486691 -8.57956
LeftUpLeg  -12.9128 3.3878 1.18292
LeftLeg  14.4549 5.85042 1.10906
LeftFoot  5.11357 -0.0209203 0.630026
LeftToes  -61.2219 1.87998e-006 4.79886e-008
330
root  -74.2716 34.6886 34.5041 -168.36 55.153 -178.181
RightUpLeg  -21.2519 -11.1306 3.21265
RightLeg  21.383 3.28186 1.04393
RightFoot  -1.09444 -0.00513603 0.000961856
RightToes  -24.1772 -0.105948 -0.20953
Spine  -0.638481 -0.803608 -0.914674
Spine1  -1.23728 -1.74043 -1.18636
HEad  -74.9157 7.00139 3.89374
LeftShoulder1  -1.94126e-019 -3.10601e-018 -2.51263e-017
LeftArm  3.24307 14.7885 -79.115
LeftForeArm  29.8371 -40.4049 -7.61575
LeftHand  -0.429696 -1.63194 7.27705
RightShoulder  -4.96962e-017 0 -2.36833e-017
RightArm  -33.6105 -26.5081 79.8899
RightForeArm  63.2181 11.1872 1.51968
RightHand  -0.361258 -0.716701 -8.94622
LeftUpLeg  -12.7471 -0.293657 0.633062
LeftLeg  14.6528 8.04714 1.5524
LeftFoot  2.79498 -0.00834875 0.503763
LeftToes  -44.9891 1.87998e-006 4.79886e-008
